<svg xmlns="http://www.w3.org/2000/svg" xmlns:svg="http://www.w3.org/2000/svg" id="svg2" width="810.625" height="540.625" version="1.1" viewBox="0 0 810.625 540.625" xml:space="preserve"><metadata id="metadata8"/><g id="g10" transform="matrix(0,-1.25,-1.25,0,945.3125,630.3125)"><g id="g12" transform="scale(0.1,0.1)"><path style="fill:none;stroke:#000;stroke-width:5;stroke-linecap:butt;stroke-linejoin:miter;stroke-miterlimit:10;stroke-dasharray:none;stroke-opacity:1" id="path14" d="m 720,1080 4320,0 0,6480 -4320,0 0,-6480 z"/><path style="fill:none;stroke:#000;stroke-width:5;stroke-linecap:butt;stroke-linejoin:miter;stroke-miterlimit:10;stroke-dasharray:none;stroke-opacity:1" id="path16" d="m 4790,1130 200,0 0,6380 -200,0 0,-6380 z"/><g id="g18" transform="scale(10,10)"><text style="font-variant:normal;font-weight:400;font-size:12px;font-family:Helvetica;-inkscape-font-specification:Helvetica;writing-mode:lr-tb;fill:#000;fill-opacity:1;fill-rule:nonzero;stroke:none" id="text20" transform="matrix(0,-1,-1,0,485,745)"><tspan id="tspan22" x="0 9.996 16.668 19.332 26.004 29.34 36.012 42.684 49.356 52.692 59.7 68.364 75.696 83.7 87.036 91.032 97.704 248.3 254.972 258.308 264.98 271.652 278.324 281.66 288.332 294.332 297.668 304.34 310.34 313.676 319.676 323.012 329.012 335.684 341.684 348.356 355.028 361.7 513.275 520.607 524.603 527.267 530.603 539.939 545.939 549.275 555.947 562.619 565.955 572.627 579.299 582.635 589.307 595.979 599.315 605.987 612.659 619.331" y="0">Main 100 +RTS -hc9,661 bytes x secondsFri Oct 2 15:01 2015</tspan></text></g><path style="fill:none;stroke:#000;stroke-width:5;stroke-linecap:butt;stroke-linejoin:miter;stroke-miterlimit:10;stroke-dasharray:none;stroke-opacity:1" id="path24" d="m 920,7110 0,-4092.29"/><g id="g26" transform="scale(10,10)"><text style="font-variant:normal;font-weight:400;font-size:10px;font-family:Helvetica;-inkscape-font-specification:Helvetica;writing-mode:lr-tb;fill:#000;fill-opacity:1;fill-rule:nonzero;stroke:none" id="text28" transform="matrix(0,-1,-1,0,77,339.011)"><tspan id="tspan30" x="0 5 10.56 15.56 21.12 26.68 32.24" y="0">seconds</tspan></text></g><path style="fill:none;stroke:#000;stroke-width:5;stroke-linecap:butt;stroke-linejoin:miter;stroke-miterlimit:10;stroke-dasharray:none;stroke-opacity:1" id="path32" d="m 920,7110 -40,0"/><g id="g34" transform="scale(10,10)"><text style="font-variant:normal;font-weight:400;font-size:10px;font-family:Helvetica;-inkscape-font-specification:Helvetica;writing-mode:lr-tb;fill:#000;fill-opacity:1;fill-rule:nonzero;stroke:none" id="text36" transform="matrix(0,-1,-1,0,77,717.95)"><tspan id="tspan38" x="0 5.56 8.34" y="0">0.0</tspan></text></g><path style="fill:none;stroke:#000;stroke-width:5;stroke-linecap:butt;stroke-linejoin:miter;stroke-miterlimit:10;stroke-dasharray:none;stroke-opacity:1" id="path40" d="m 920,6489.96 -40,0"/><g id="g42" transform="scale(10,10)"><text style="font-variant:normal;font-weight:400;font-size:10px;font-family:Helvetica;-inkscape-font-specification:Helvetica;writing-mode:lr-tb;fill:#000;fill-opacity:1;fill-rule:nonzero;stroke:none" id="text44" transform="matrix(0,-1,-1,0,77,655.945)"><tspan id="tspan46" x="0 5.56 8.34" y="0">0.1</tspan></text></g><path style="fill:none;stroke:#000;stroke-width:5;stroke-linecap:butt;stroke-linejoin:miter;stroke-miterlimit:10;stroke-dasharray:none;stroke-opacity:1" id="path48" d="m 920,5869.91 -40,0"/><g id="g50" transform="scale(10,10)"><text style="font-variant:normal;font-weight:400;font-size:10px;font-family:Helvetica;-inkscape-font-specification:Helvetica;writing-mode:lr-tb;fill:#000;fill-opacity:1;fill-rule:nonzero;stroke:none" id="text52" transform="matrix(0,-1,-1,0,77,593.941)"><tspan id="tspan54" x="0 5.56 8.34" y="0">0.1</tspan></text></g><path style="fill:none;stroke:#000;stroke-width:5;stroke-linecap:butt;stroke-linejoin:miter;stroke-miterlimit:10;stroke-dasharray:none;stroke-opacity:1" id="path56" d="m 920,5249.87 -40,0"/><g id="g58" transform="scale(10,10)"><text style="font-variant:normal;font-weight:400;font-size:10px;font-family:Helvetica;-inkscape-font-specification:Helvetica;writing-mode:lr-tb;fill:#000;fill-opacity:1;fill-rule:nonzero;stroke:none" id="text60" transform="matrix(0,-1,-1,0,77,531.937)"><tspan id="tspan62" x="0 5.56 8.34" y="0">0.2</tspan></text></g><path style="fill:none;stroke:#000;stroke-width:5;stroke-linecap:butt;stroke-linejoin:miter;stroke-miterlimit:10;stroke-dasharray:none;stroke-opacity:1" id="path64" d="m 920,4629.83 -40,0"/><g id="g66" transform="scale(10,10)"><text style="font-variant:normal;font-weight:400;font-size:10px;font-family:Helvetica;-inkscape-font-specification:Helvetica;writing-mode:lr-tb;fill:#000;fill-opacity:1;fill-rule:nonzero;stroke:none" id="text68" transform="matrix(0,-1,-1,0,77,469.932)"><tspan id="tspan70" x="0 5.56 8.34" y="0">0.2</tspan></text></g><path style="fill:none;stroke:#000;stroke-width:5;stroke-linecap:butt;stroke-linejoin:miter;stroke-miterlimit:10;stroke-dasharray:none;stroke-opacity:1" id="path72" d="m 920,4009.79 -40,0"/><g id="g74" transform="scale(10,10)"><text style="font-variant:normal;font-weight:400;font-size:10px;font-family:Helvetica;-inkscape-font-specification:Helvetica;writing-mode:lr-tb;fill:#000;fill-opacity:1;fill-rule:nonzero;stroke:none" id="text76" transform="matrix(0,-1,-1,0,77,407.928)"><tspan id="tspan78" x="0 5.56 8.34" y="0">0.2</tspan></text></g><path style="fill:none;stroke:#000;stroke-width:5;stroke-linecap:butt;stroke-linejoin:miter;stroke-miterlimit:10;stroke-dasharray:none;stroke-opacity:1" id="path80" d="m 920,7110 3820,0"/><g id="g82" transform="scale(10,10)"><text style="font-variant:normal;font-weight:400;font-size:10px;font-family:Helvetica;-inkscape-font-specification:Helvetica;writing-mode:lr-tb;fill:#000;fill-opacity:1;fill-rule:nonzero;stroke:none" id="text84" transform="matrix(1,0,0,-1,450.101,716)"><tspan id="tspan86" x="0 5.56 10.56 13.34 18.9" y="0">bytes</tspan></text></g><path style="fill:none;stroke:#000;stroke-width:5;stroke-linecap:butt;stroke-linejoin:miter;stroke-miterlimit:10;stroke-dasharray:none;stroke-opacity:1" id="path88" d="m 920,7110 0,40"/><g id="g90" transform="scale(10,10)"><text style="font-variant:normal;font-weight:400;font-size:10px;font-family:Helvetica;-inkscape-font-specification:Helvetica;writing-mode:lr-tb;fill:#000;fill-opacity:1;fill-rule:nonzero;stroke:none" id="text92" transform="matrix(0,-1,-1,0,92,726.56)"><tspan id="tspan94" x="0 5.56" y="0">0k</tspan></text></g><path style="fill:none;stroke:#000;stroke-width:5;stroke-linecap:butt;stroke-linejoin:miter;stroke-miterlimit:10;stroke-dasharray:none;stroke-opacity:1" id="path96" d="m 1427.76,7110 0,40"/><g id="g98" transform="scale(10,10)"><text style="font-variant:normal;font-weight:400;font-size:10px;font-family:Helvetica;-inkscape-font-specification:Helvetica;writing-mode:lr-tb;fill:#000;fill-opacity:1;fill-rule:nonzero;stroke:none" id="text100" transform="matrix(0,-1,-1,0,142.776,726.56)"><tspan id="tspan102" x="0 5.56" y="0">5k</tspan></text></g><path style="fill:none;stroke:#000;stroke-width:5;stroke-linecap:butt;stroke-linejoin:miter;stroke-miterlimit:10;stroke-dasharray:none;stroke-opacity:1" id="path104" d="m 1935.52,7110 0,40"/><g id="g106" transform="scale(10,10)"><text style="font-variant:normal;font-weight:400;font-size:10px;font-family:Helvetica;-inkscape-font-specification:Helvetica;writing-mode:lr-tb;fill:#000;fill-opacity:1;fill-rule:nonzero;stroke:none" id="text108" transform="matrix(0,-1,-1,0,193.552,732.12)"><tspan id="tspan110" x="0 5.56 11.12" y="0">10k</tspan></text></g><path style="fill:none;stroke:#000;stroke-width:5;stroke-linecap:butt;stroke-linejoin:miter;stroke-miterlimit:10;stroke-dasharray:none;stroke-opacity:1" id="path112" d="m 2443.29,7110 0,40"/><g id="g114" transform="scale(10,10)"><text style="font-variant:normal;font-weight:400;font-size:10px;font-family:Helvetica;-inkscape-font-specification:Helvetica;writing-mode:lr-tb;fill:#000;fill-opacity:1;fill-rule:nonzero;stroke:none" id="text116" transform="matrix(0,-1,-1,0,244.329,732.12)"><tspan id="tspan118" x="0 5.56 11.12" y="0">15k</tspan></text></g><path style="fill:none;stroke:#000;stroke-width:5;stroke-linecap:butt;stroke-linejoin:miter;stroke-miterlimit:10;stroke-dasharray:none;stroke-opacity:1" id="path120" d="m 2951.05,7110 0,40"/><g id="g122" transform="scale(10,10)"><text style="font-variant:normal;font-weight:400;font-size:10px;font-family:Helvetica;-inkscape-font-specification:Helvetica;writing-mode:lr-tb;fill:#000;fill-opacity:1;fill-rule:nonzero;stroke:none" id="text124" transform="matrix(0,-1,-1,0,295.105,732.12)"><tspan id="tspan126" x="0 5.56 11.12" y="0">20k</tspan></text></g><path style="fill:none;stroke:#000;stroke-width:5;stroke-linecap:butt;stroke-linejoin:miter;stroke-miterlimit:10;stroke-dasharray:none;stroke-opacity:1" id="path128" d="m 3458.81,7110 0,40"/><g id="g130" transform="scale(10,10)"><text style="font-variant:normal;font-weight:400;font-size:10px;font-family:Helvetica;-inkscape-font-specification:Helvetica;writing-mode:lr-tb;fill:#000;fill-opacity:1;fill-rule:nonzero;stroke:none" id="text132" transform="matrix(0,-1,-1,0,345.881,732.12)"><tspan id="tspan134" x="0 5.56 11.12" y="0">25k</tspan></text></g><path style="fill:none;stroke:#000;stroke-width:5;stroke-linecap:butt;stroke-linejoin:miter;stroke-miterlimit:10;stroke-dasharray:none;stroke-opacity:1" id="path136" d="m 3966.57,7110 0,40"/><g id="g138" transform="scale(10,10)"><text style="font-variant:normal;font-weight:400;font-size:10px;font-family:Helvetica;-inkscape-font-specification:Helvetica;writing-mode:lr-tb;fill:#000;fill-opacity:1;fill-rule:nonzero;stroke:none" id="text140" transform="matrix(0,-1,-1,0,396.657,732.12)"><tspan id="tspan142" x="0 5.56 11.12" y="0">30k</tspan></text></g><path style="fill:#000;fill-opacity:1;fill-rule:nonzero;stroke:none" id="path144" d="m 1031.91,2827.72 140,0 0,140 -140,0 0,-140 z"/><path style="fill:none;stroke:#000;stroke-width:5;stroke-linecap:butt;stroke-linejoin:miter;stroke-miterlimit:10;stroke-dasharray:none;stroke-opacity:1" id="path146" d="m 1031.91,2827.72 140,0 0,140 -140,0 0,-140 z"/><g id="g148" transform="scale(10,10)"><text style="font-variant:normal;font-weight:400;font-size:10px;font-family:Helvetica;-inkscape-font-specification:Helvetica;writing-mode:lr-tb;fill:#000;fill-opacity:1;fill-rule:nonzero;stroke:none" id="text150" transform="matrix(0,-1,-1,0,105.191,277.772)"><tspan id="tspan152" x="0 7.78 13.89 21.11 27.78" y="0">OTHER</tspan></text></g><path style="fill:#333;fill-opacity:1;fill-rule:nonzero;stroke:none" id="path154" d="m 1213.81,2827.72 140,0 0,140 -140,0 0,-140 z"/><path style="fill:none;stroke:#000;stroke-width:5;stroke-linecap:butt;stroke-linejoin:miter;stroke-miterlimit:10;stroke-dasharray:none;stroke-opacity:1" id="path156" d="m 1213.81,2827.72 140,0 0,140 -140,0 0,-140 z"/><g id="g158" transform="scale(10,10)"><text style="font-variant:normal;font-weight:400;font-size:10px;font-family:Helvetica;-inkscape-font-specification:Helvetica;writing-mode:lr-tb;fill:#000;fill-opacity:1;fill-rule:nonzero;stroke:none" id="text160" transform="matrix(0,-1,-1,0,123.381,277.772)"><tspan id="tspan162" x="0 3.33 8.89 14.45 20.01 23.34 26.12 29.45 35.01 40.01 45.57 51.13 53.35 58.35 63.91 66.13 68.91 72.24 77.8 82.8 85.58 88.36 91.14 94.47 100.03 105.03 107.81 110.59 113.37" y="0">(112)tracepixel/ray.f/ray/...</tspan></text></g><path style="fill:#999;fill-opacity:1;fill-rule:nonzero;stroke:none" id="path164" d="m 1395.71,2827.72 140,0 0,140 -140,0 0,-140 z"/><path style="fill:none;stroke:#000;stroke-width:5;stroke-linecap:butt;stroke-linejoin:miter;stroke-miterlimit:10;stroke-dasharray:none;stroke-opacity:1" id="path166" d="m 1395.71,2827.72 140,0 0,140 -140,0 0,-140 z"/><g id="g168" transform="scale(10,10)"><text style="font-variant:normal;font-weight:400;font-size:10px;font-family:Helvetica;-inkscape-font-specification:Helvetica;writing-mode:lr-tb;fill:#000;fill-opacity:1;fill-rule:nonzero;stroke:none" id="text170" transform="matrix(0,-1,-1,0,141.571,277.772)"><tspan id="tspan172" x="0 3.33 8.89 14.45 20.01 23.34 28.34 33.9 39.46 45.02 48.35 53.91 56.13 61.69 64.47 70.03 73.36 78.36 83.92 88.92 91.7 94.48 97.26 100.59 106.15 111.15 116.71 119.49 122.27" y="0">(122)sphereintersect/trace...</tspan></text></g><path style="fill:#4d4d4d;fill-opacity:1;fill-rule:nonzero;stroke:none" id="path174" d="m 1577.62,2827.72 140,0 0,140 -140,0 0,-140 z"/><path style="fill:none;stroke:#000;stroke-width:5;stroke-linecap:butt;stroke-linejoin:miter;stroke-miterlimit:10;stroke-dasharray:none;stroke-opacity:1" id="path176" d="m 1577.62,2827.72 140,0 0,140 -140,0 0,-140 z"/><g id="g178" transform="scale(10,10)"><text style="font-variant:normal;font-weight:400;font-size:10px;font-family:Helvetica;-inkscape-font-specification:Helvetica;writing-mode:lr-tb;fill:#000;fill-opacity:1;fill-rule:nonzero;stroke:none" id="text180" transform="matrix(0,-1,-1,0,159.762,277.772)"><tspan id="tspan182" x="0 3.33 8.89 14.45 20.01 23.34 26.67 32.23 37.79 40.57 46.13 48.35 53.91 59.47 62.25 67.81 73.37 75.59 78.37 81.15 84.48 90.04 95.6 98.38 103.94 106.16 111.16 113.94 116.72" y="0">(183)rbg.eight_bit/rbg/pix...</tspan></text></g><path style="fill:#e6e6e6;fill-opacity:1;fill-rule:nonzero;stroke:none" id="path184" d="m 1759.52,2827.72 140,0 0,140 -140,0 0,-140 z"/><path style="fill:none;stroke:#000;stroke-width:5;stroke-linecap:butt;stroke-linejoin:miter;stroke-miterlimit:10;stroke-dasharray:none;stroke-opacity:1" id="path186" d="m 1759.52,2827.72 140,0 0,140 -140,0 0,-140 z"/><g id="g188" transform="scale(10,10)"><text style="font-variant:normal;font-weight:400;font-size:10px;font-family:Helvetica;-inkscape-font-specification:Helvetica;writing-mode:lr-tb;fill:#000;fill-opacity:1;fill-rule:nonzero;stroke:none" id="text190" transform="matrix(0,-1,-1,0,177.952,277.772)"><tspan id="tspan192" x="0 3.33 8.89 14.45 20.01 23.34 28.9 31.12 36.12 41.68 43.9 48.9 51.68 57.24 62.8 71.13 73.91 77.24 82.8 88.36 91.14 99.47 105.03 107.25 112.81 115.59 118.37 121.15 123.93" y="0">(108)pixels/ppm/run/main.\...</tspan></text></g><path style="fill:#666;fill-opacity:1;fill-rule:nonzero;stroke:none" id="path194" d="m 1941.43,2827.72 140,0 0,140 -140,0 0,-140 z"/><path style="fill:none;stroke:#000;stroke-width:5;stroke-linecap:butt;stroke-linejoin:miter;stroke-miterlimit:10;stroke-dasharray:none;stroke-opacity:1" id="path196" d="m 1941.43,2827.72 140,0 0,140 -140,0 0,-140 z"/><g id="g198" transform="scale(10,10)"><text style="font-variant:normal;font-weight:400;font-size:10px;font-family:Helvetica;-inkscape-font-specification:Helvetica;writing-mode:lr-tb;fill:#000;fill-opacity:1;fill-rule:nonzero;stroke:none" id="text200" transform="matrix(0,-1,-1,0,196.143,277.772)"><tspan id="tspan202" x="0 3.33 8.89 14.45 20.01 23.34 28.34 33.9 38.9 44.46 50.02 55.58 58.36 63.36 68.92 73.92 78.92 84.48 92.81 95.59 100.59 106.15 111.71 117.27 122.83 125.61 131.17 133.95 136.73" y="0">(221)vecadd/vecsum/shade.d...</tspan></text></g><path style="fill:#fff;fill-opacity:1;fill-rule:nonzero;stroke:none" id="path204" d="m 2123.33,2827.72 140,0 0,140 -140,0 0,-140 z"/><path style="fill:none;stroke:#000;stroke-width:5;stroke-linecap:butt;stroke-linejoin:miter;stroke-miterlimit:10;stroke-dasharray:none;stroke-opacity:1" id="path206" d="m 2123.33,2827.72 140,0 0,140 -140,0 0,-140 z"/><g id="g208" transform="scale(10,10)"><text style="font-variant:normal;font-weight:400;font-size:10px;font-family:Helvetica;-inkscape-font-specification:Helvetica;writing-mode:lr-tb;fill:#000;fill-opacity:1;fill-rule:nonzero;stroke:none" id="text210" transform="matrix(0,-1,-1,0,214.333,277.772)"><tspan id="tspan212" x="0 3.33 8.89 14.45 20.01 23.34 28.34 33.9 38.9 43.9 48.9 54.46 56.68 62.24 65.02 70.02 75.58 83.91 89.47 95.03 98.36 103.92 112.25 117.25 120.03 125.03 130.03 132.81 135.59" y="0">(147)vecscale/camparams.sc...</tspan></text></g><path style="fill:#b2b2b2;fill-opacity:1;fill-rule:nonzero;stroke:none" id="path214" d="m 2305.24,2827.72 140,0 0,140 -140,0 0,-140 z"/><path style="fill:none;stroke:#000;stroke-width:5;stroke-linecap:butt;stroke-linejoin:miter;stroke-miterlimit:10;stroke-dasharray:none;stroke-opacity:1" id="path216" d="m 2305.24,2827.72 140,0 0,140 -140,0 0,-140 z"/><g id="g218" transform="scale(10,10)"><text style="font-variant:normal;font-weight:400;font-size:10px;font-family:Helvetica;-inkscape-font-specification:Helvetica;writing-mode:lr-tb;fill:#000;fill-opacity:1;fill-rule:nonzero;stroke:none" id="text220" transform="matrix(0,-1,-1,0,232.524,277.772)"><tspan id="tspan222" x="0 3.33 8.89 14.45 20.01 23.34 28.34 33.9 38.9 43.9 48.9 54.46 56.68 62.24 65.02 70.02 75.58 83.91 89.47 95.03 98.36 103.92 112.25 117.25 120.03 125.03 130.03 132.81 135.59" y="0">(157)vecscale/camparams.sc...</tspan></text></g><path style="fill:gray;fill-opacity:1;fill-rule:nonzero;stroke:none" id="path224" d="m 2487.14,2827.72 140,0 0,140 -140,0 0,-140 z"/><path style="fill:none;stroke:#000;stroke-width:5;stroke-linecap:butt;stroke-linejoin:miter;stroke-miterlimit:10;stroke-dasharray:none;stroke-opacity:1" id="path226" d="m 2487.14,2827.72 140,0 0,140 -140,0 0,-140 z"/><g id="g228" transform="scale(10,10)"><text style="font-variant:normal;font-weight:400;font-size:10px;font-family:Helvetica;-inkscape-font-specification:Helvetica;writing-mode:lr-tb;fill:#000;fill-opacity:1;fill-rule:nonzero;stroke:none" id="text230" transform="matrix(0,-1,-1,0,250.714,277.772)"><tspan id="tspan232" x="0 3.33 8.89 14.45 20.01 23.34 28.34 33.9 38.9 43.9 49.46 55.02 57.8 62.8 68.36 76.69 82.25 87.81 91.14 96.7 105.03 110.03 112.81 115.59 117.81 121.14 126.14 128.92 131.7" y="0">(140)vecsub/camparams.firs...</tspan></text></g><path style="fill:#ccc;fill-opacity:1;fill-rule:nonzero;stroke:none" id="path234" d="m 2669.05,2827.72 140,0 0,140 -140,0 0,-140 z"/><path style="fill:none;stroke:#000;stroke-width:5;stroke-linecap:butt;stroke-linejoin:miter;stroke-miterlimit:10;stroke-dasharray:none;stroke-opacity:1" id="path236" d="m 2669.05,2827.72 140,0 0,140 -140,0 0,-140 z"/><g id="g238" transform="scale(10,10)"><text style="font-variant:normal;font-weight:400;font-size:10px;font-family:Helvetica;-inkscape-font-specification:Helvetica;writing-mode:lr-tb;fill:#000;fill-opacity:1;fill-rule:nonzero;stroke:none" id="text240" transform="matrix(0,-1,-1,0,268.905,277.772)"><tspan id="tspan242" x="0 3.33 8.89 14.45 20.01 23.34 26.67 32.23 37.79 40.57 46.13 48.35 53.35 58.91 61.13 66.13 68.91 74.47 80.03 88.36 91.14 94.47 100.03 105.59 108.37 116.7 122.26 125.04 127.82" y="0">(110)rbg/pixels/ppm/run/ma...</tspan></text></g><path style="fill:#000;fill-opacity:1;fill-rule:nonzero;stroke:none" id="path244" d="m 2850.95,2827.72 140,0 0,140 -140,0 0,-140 z"/><path style="fill:none;stroke:#000;stroke-width:5;stroke-linecap:butt;stroke-linejoin:miter;stroke-miterlimit:10;stroke-dasharray:none;stroke-opacity:1" id="path246" d="m 2850.95,2827.72 140,0 0,140 -140,0 0,-140 z"/><g id="g248" transform="scale(10,10)"><text style="font-variant:normal;font-weight:400;font-size:10px;font-family:Helvetica;-inkscape-font-specification:Helvetica;writing-mode:lr-tb;fill:#000;fill-opacity:1;fill-rule:nonzero;stroke:none" id="text250" transform="matrix(0,-1,-1,0,287.095,277.772)"><tspan id="tspan252" x="0 3.33 8.89 14.45 17.78 25.56 32.78 40 42.78 45.56 53.34 56.12 62.79 68.35 73.35 78.91 84.47 86.69 92.25 97.81 100.59 103.37 108.37 113.93 119.49 124.49 127.27 134.49 141.16" y="0">(80)GHC.IO.Encoding.Iconv.CAF</tspan></text></g><path style="fill:#333;fill-opacity:1;fill-rule:nonzero;stroke:none" id="path254" d="m 3032.86,2827.72 140,0 0,140 -140,0 0,-140 z"/><path style="fill:none;stroke:#000;stroke-width:5;stroke-linecap:butt;stroke-linejoin:miter;stroke-miterlimit:10;stroke-dasharray:none;stroke-opacity:1" id="path256" d="m 3032.86,2827.72 140,0 0,140 -140,0 0,-140 z"/><g id="g258" transform="scale(10,10)"><text style="font-variant:normal;font-weight:400;font-size:10px;font-family:Helvetica;-inkscape-font-specification:Helvetica;writing-mode:lr-tb;fill:#000;fill-opacity:1;fill-rule:nonzero;stroke:none" id="text260" transform="matrix(0,-1,-1,0,305.286,277.772)"><tspan id="tspan262" x="0 3.33 8.89 14.45 20.01 23.34 28.34 33.9 38.9 43.9 49.46 57.79 60.57 68.9 74.46 76.68 82.24 85.02 92.24 98.91" y="0">(217)vecsum/Main.CAF</tspan></text></g><path style="fill:#999;fill-opacity:1;fill-rule:nonzero;stroke:none" id="path264" d="m 3214.76,2827.72 140,0 0,140 -140,0 0,-140 z"/><path style="fill:none;stroke:#000;stroke-width:5;stroke-linecap:butt;stroke-linejoin:miter;stroke-miterlimit:10;stroke-dasharray:none;stroke-opacity:1" id="path266" d="m 3214.76,2827.72 140,0 0,140 -140,0 0,-140 z"/><g id="g268" transform="scale(10,10)"><text style="font-variant:normal;font-weight:400;font-size:10px;font-family:Helvetica;-inkscape-font-specification:Helvetica;writing-mode:lr-tb;fill:#000;fill-opacity:1;fill-rule:nonzero;stroke:none" id="text270" transform="matrix(0,-1,-1,0,323.476,277.772)"><tspan id="tspan272" x="0 3.33 8.89 14.45 20.01 23.34 26.12 31.68 36.68 39.46 44.46 50.02 55.58 61.14 64.47 70.03 75.03 77.81 86.14 91.7 93.92 99.48 102.26 109.48 116.15" y="0">(119)testspheres/Main.CAF</tspan></text></g><path style="fill:#4d4d4d;fill-opacity:1;fill-rule:nonzero;stroke:none" id="path274" d="m 3396.67,2827.72 140,0 0,140 -140,0 0,-140 z"/><path style="fill:none;stroke:#000;stroke-width:5;stroke-linecap:butt;stroke-linejoin:miter;stroke-miterlimit:10;stroke-dasharray:none;stroke-opacity:1" id="path276" d="m 3396.67,2827.72 140,0 0,140 -140,0 0,-140 z"/><g id="g278" transform="scale(10,10)"><text style="font-variant:normal;font-weight:400;font-size:10px;font-family:Helvetica;-inkscape-font-specification:Helvetica;writing-mode:lr-tb;fill:#000;fill-opacity:1;fill-rule:nonzero;stroke:none" id="text280" transform="matrix(0,-1,-1,0,341.667,277.772)"><tspan id="tspan282" x="0 3.33 8.89 14.45 20.01 23.34 28.34 33.9 39.46 45.02 50.58 53.36 56.14 59.47 65.03 70.03 75.59 81.15 83.37 88.37 93.93 96.15 98.93 102.26 107.82 112.82 115.6 118.38 121.16" y="0">(185)shade/tracepixel/ray....</tspan></text></g><path style="fill:#e6e6e6;fill-opacity:1;fill-rule:nonzero;stroke:none" id="path284" d="m 3578.57,2827.72 140,0 0,140 -140,0 0,-140 z"/><path style="fill:none;stroke:#000;stroke-width:5;stroke-linecap:butt;stroke-linejoin:miter;stroke-miterlimit:10;stroke-dasharray:none;stroke-opacity:1" id="path286" d="m 3578.57,2827.72 140,0 0,140 -140,0 0,-140 z"/><g id="g288" transform="scale(10,10)"><text style="font-variant:normal;font-weight:400;font-size:10px;font-family:Helvetica;-inkscape-font-specification:Helvetica;writing-mode:lr-tb;fill:#000;fill-opacity:1;fill-rule:nonzero;stroke:none" id="text290" transform="matrix(0,-1,-1,0,359.857,277.772)"><tspan id="tspan292" x="0 3.33 8.89 14.45 20.01 23.34 26.67 32.23 37.23 40.01 43.34 48.9 54.46 57.24 65.57 71.13 73.35 78.91 81.69 84.47 87.25 95.58 101.14 103.36 108.92 111.7 120.03 122.81 125.59" y="0">(109)ray/run/main.\/main/M...</tspan></text></g><path style="fill:#666;fill-opacity:1;fill-rule:nonzero;stroke:none" id="path294" d="m 3760.48,2827.72 140,0 0,140 -140,0 0,-140 z"/><path style="fill:none;stroke:#000;stroke-width:5;stroke-linecap:butt;stroke-linejoin:miter;stroke-miterlimit:10;stroke-dasharray:none;stroke-opacity:1" id="path296" d="m 3760.48,2827.72 140,0 0,140 -140,0 0,-140 z"/><g id="g298" transform="scale(10,10)"><text style="font-variant:normal;font-weight:400;font-size:10px;font-family:Helvetica;-inkscape-font-specification:Helvetica;writing-mode:lr-tb;fill:#000;fill-opacity:1;fill-rule:nonzero;stroke:none" id="text300" transform="matrix(0,-1,-1,0,378.048,277.772)"><tspan id="tspan302" x="0 3.33 8.89 14.45 20.01 23.34 31.67 37.23 39.45 45.01 47.79 55.01 61.68" y="0">(103)Main.CAF</tspan></text></g><path style="fill:#fff;fill-opacity:1;fill-rule:nonzero;stroke:none" id="path304" d="m 3942.38,2827.72 140,0 0,140 -140,0 0,-140 z"/><path style="fill:none;stroke:#000;stroke-width:5;stroke-linecap:butt;stroke-linejoin:miter;stroke-miterlimit:10;stroke-dasharray:none;stroke-opacity:1" id="path306" d="m 3942.38,2827.72 140,0 0,140 -140,0 0,-140 z"/><g id="g308" transform="scale(10,10)"><text style="font-variant:normal;font-weight:400;font-size:10px;font-family:Helvetica;-inkscape-font-specification:Helvetica;writing-mode:lr-tb;fill:#000;fill-opacity:1;fill-rule:nonzero;stroke:none" id="text310" transform="matrix(0,-1,-1,0,396.238,277.772)"><tspan id="tspan312" x="0 3.33 8.89 14.45 17.78 25.56 32.78 40 42.78 50 55.56 61.12 66.12 68.9 75.57 77.79 83.35 88.91 94.47 96.69 99.47 106.69 113.36" y="0">(84)GHC.Conc.Signal.CAF</tspan></text></g><path style="fill:#b2b2b2;fill-opacity:1;fill-rule:nonzero;stroke:none" id="path314" d="m 4124.29,2827.72 140,0 0,140 -140,0 0,-140 z"/><path style="fill:none;stroke:#000;stroke-width:5;stroke-linecap:butt;stroke-linejoin:miter;stroke-miterlimit:10;stroke-dasharray:none;stroke-opacity:1" id="path316" d="m 4124.29,2827.72 140,0 0,140 -140,0 0,-140 z"/><g id="g318" transform="scale(10,10)"><text style="font-variant:normal;font-weight:400;font-size:10px;font-family:Helvetica;-inkscape-font-specification:Helvetica;writing-mode:lr-tb;fill:#000;fill-opacity:1;fill-rule:nonzero;stroke:none" id="text320" transform="matrix(0,-1,-1,0,414.429,277.772)"><tspan id="tspan322" x="0 3.33 8.89 14.45 17.78 25.56 32.78 40 42.78 45.56 53.34 56.12 63.34 68.9 74.46 80.02 82.24 87.8 90.58 96.69 103.91 106.69 113.91 120.58" y="0">(77)GHC.IO.Handle.FD.CAF</tspan></text></g><path style="fill:gray;fill-opacity:1;fill-rule:nonzero;stroke:none" id="path324" d="m 4306.19,2827.72 140,0 0,140 -140,0 0,-140 z"/><path style="fill:none;stroke:#000;stroke-width:5;stroke-linecap:butt;stroke-linejoin:miter;stroke-miterlimit:10;stroke-dasharray:none;stroke-opacity:1" id="path326" d="m 4306.19,2827.72 140,0 0,140 -140,0 0,-140 z"/><g id="g328" transform="scale(10,10)"><text style="font-variant:normal;font-weight:400;font-size:10px;font-family:Helvetica;-inkscape-font-specification:Helvetica;writing-mode:lr-tb;fill:#000;fill-opacity:1;fill-rule:nonzero;stroke:none" id="text330" transform="matrix(0,-1,-1,0,432.619,277.772)"><tspan id="tspan332" x="0 3.33 8.89 14.45 17.78 25.56 32.78 40 42.78 45.56 53.34 56.12 62.79 68.35 73.35 78.91 84.47 86.69 92.25 97.81 100.59 107.81 114.48" y="0">(92)GHC.IO.Encoding.CAF</tspan></text></g><path style="fill:#ccc;fill-opacity:1;fill-rule:nonzero;stroke:none" id="path334" d="m 4488.09,2827.72 140,0 0,140 -140,0 0,-140 z"/><path style="fill:none;stroke:#000;stroke-width:5;stroke-linecap:butt;stroke-linejoin:miter;stroke-miterlimit:10;stroke-dasharray:none;stroke-opacity:1" id="path336" d="m 4488.09,2827.72 140,0 0,140 -140,0 0,-140 z"/><g id="g338" transform="scale(10,10)"><text style="font-variant:normal;font-weight:400;font-size:10px;font-family:Helvetica;-inkscape-font-specification:Helvetica;writing-mode:lr-tb;fill:#000;fill-opacity:1;fill-rule:nonzero;stroke:none" id="text340" transform="matrix(0,-1,-1,0,450.809,277.772)"><tspan id="tspan342" x="0 3.33 8.89 14.45 17.78 24.45 27.23 34.45 41.67 48.34" y="0">(54)PINNED</tspan></text></g><path style="fill:#000;fill-opacity:1;fill-rule:nonzero;stroke:none" id="path344" d="m 920,7110 0,-4092.28 17.063,620.04 51.992,1240.08 L 924.063,5993.92 920,7110"/><path style="fill:none;stroke:#000;stroke-width:5;stroke-linecap:butt;stroke-linejoin:miter;stroke-miterlimit:10;stroke-dasharray:none;stroke-opacity:1" id="path346" d="m 920,7110 0,-4092.28 17.063,620.04 51.992,1240.08 L 924.063,5993.92 920,7110 Z"/><path style="fill:#333;fill-opacity:1;fill-rule:nonzero;stroke:none" id="path348" d="m 920,7110 0,0 4.063,-1116.08 L 989.055,4877.84 937.063,3637.76 920,3017.72 l 0,0 30.871,620.04 38.184,1240.08 L 924.063,5993.92 920,7110"/><path style="fill:none;stroke:#000;stroke-width:5;stroke-linecap:butt;stroke-linejoin:miter;stroke-miterlimit:10;stroke-dasharray:none;stroke-opacity:1" id="path350" d="m 920,7110 0,0 4.063,-1116.08 L 989.055,4877.84 937.063,3637.76 920,3017.72 l 0,0 30.871,620.04 38.184,1240.08 L 924.063,5993.92 920,7110 Z"/><path style="fill:#999;fill-opacity:1;fill-rule:nonzero;stroke:none" id="path352" d="m 920,7110 0,0 4.063,-1116.08 L 989.055,4877.84 950.871,3637.76 920,3017.72 l 0,0 45.496,620.04 23.559,1240.08 L 924.063,5993.92 920,7110"/><path style="fill:none;stroke:#000;stroke-width:5;stroke-linecap:butt;stroke-linejoin:miter;stroke-miterlimit:10;stroke-dasharray:none;stroke-opacity:1" id="path354" d="m 920,7110 0,0 4.063,-1116.08 L 989.055,4877.84 950.871,3637.76 920,3017.72 l 0,0 45.496,620.04 23.559,1240.08 L 924.063,5993.92 920,7110 Z"/><path style="fill:#4d4d4d;fill-opacity:1;fill-rule:nonzero;stroke:none" id="path356" d="m 920,7110 0,0 4.063,-1116.08 L 989.055,4877.84 965.496,3637.76 920,3017.72 l 0,0 45.496,620.04 L 1005.3,4877.84 925.688,5993.92 920,7110"/><path style="fill:none;stroke:#000;stroke-width:5;stroke-linecap:butt;stroke-linejoin:miter;stroke-miterlimit:10;stroke-dasharray:none;stroke-opacity:1" id="path358" d="m 920,7110 0,0 4.063,-1116.08 L 989.055,4877.84 965.496,3637.76 920,3017.72 l 0,0 45.496,620.04 L 1005.3,4877.84 925.688,5993.92 920,7110 Z"/><path style="fill:#e6e6e6;fill-opacity:1;fill-rule:nonzero;stroke:none" id="path360" d="m 920,7110 0,0 5.688,-1116.08 L 1005.3,4877.84 965.496,3637.76 920,3017.72 l 0,0 60.117,620.04 27.623,1240.08 L 928.125,5993.92 920,7110"/><path style="fill:none;stroke:#000;stroke-width:5;stroke-linecap:butt;stroke-linejoin:miter;stroke-miterlimit:10;stroke-dasharray:none;stroke-opacity:1" id="path362" d="m 920,7110 0,0 5.688,-1116.08 L 1005.3,4877.84 965.496,3637.76 920,3017.72 l 0,0 60.117,620.04 27.623,1240.08 L 928.125,5993.92 920,7110 Z"/><path style="fill:#666;fill-opacity:1;fill-rule:nonzero;stroke:none" id="path364" d="m 920,7110 0,0 8.125,-1116.08 L 1007.74,4877.84 980.117,3637.76 920,3017.72 l 0,0 60.117,620.04 47.123,1240.08 L 928.125,5993.92 920,7110"/><path style="fill:none;stroke:#000;stroke-width:5;stroke-linecap:butt;stroke-linejoin:miter;stroke-miterlimit:10;stroke-dasharray:none;stroke-opacity:1" id="path366" d="m 920,7110 0,0 8.125,-1116.08 L 1007.74,4877.84 980.117,3637.76 920,3017.72 l 0,0 60.117,620.04 47.123,1240.08 L 928.125,5993.92 920,7110 Z"/><path style="fill:#fff;fill-opacity:1;fill-rule:nonzero;stroke:none" id="path368" d="m 920,7110 0,0 8.125,-1116.08 L 1027.24,4877.84 980.117,3637.76 920,3017.72 l 0,0 68.242,620.04 47.118,1240.08 L 936.25,5993.92 920,7110"/><path style="fill:none;stroke:#000;stroke-width:5;stroke-linecap:butt;stroke-linejoin:miter;stroke-miterlimit:10;stroke-dasharray:none;stroke-opacity:1" id="path370" d="m 920,7110 0,0 8.125,-1116.08 L 1027.24,4877.84 980.117,3637.76 920,3017.72 l 0,0 68.242,620.04 47.118,1240.08 L 936.25,5993.92 920,7110 Z"/><path style="fill:#b2b2b2;fill-opacity:1;fill-rule:nonzero;stroke:none" id="path372" d="m 920,7110 0,0 16.25,-1116.08 99.11,-1116.08 L 988.242,3637.76 920,3017.72 l 0,0 76.367,620.04 47.123,1240.08 L 944.371,5993.92 920,7110"/><path style="fill:none;stroke:#000;stroke-width:5;stroke-linecap:butt;stroke-linejoin:miter;stroke-miterlimit:10;stroke-dasharray:none;stroke-opacity:1" id="path374" d="m 920,7110 0,0 16.25,-1116.08 99.11,-1116.08 L 988.242,3637.76 920,3017.72 l 0,0 76.367,620.04 47.123,1240.08 L 944.371,5993.92 920,7110 Z"/><path style="fill:gray;fill-opacity:1;fill-rule:nonzero;stroke:none" id="path376" d="m 920,7110 0,0 L 944.371,5993.92 1043.49,4877.84 996.367,3637.76 920,3017.72 l 0,0 84.49,620.04 47.12,1240.08 L 952.496,5993.92 920,7110"/><path style="fill:none;stroke:#000;stroke-width:5;stroke-linecap:butt;stroke-linejoin:miter;stroke-miterlimit:10;stroke-dasharray:none;stroke-opacity:1" id="path378" d="m 920,7110 0,0 L 944.371,5993.92 1043.49,4877.84 996.367,3637.76 920,3017.72 l 0,0 84.49,620.04 47.12,1240.08 L 952.496,5993.92 920,7110 Z"/><path style="fill:#ccc;fill-opacity:1;fill-rule:nonzero;stroke:none" id="path380" d="m 920,7110 0,0 32.496,-1116.08 99.114,-1116.08 -47.12,-1240.08 -84.49,-620.04 0,0 84.49,620.04 67.43,1240.08 L 964.684,5993.92 920,7110"/><path style="fill:none;stroke:#000;stroke-width:5;stroke-linecap:butt;stroke-linejoin:miter;stroke-miterlimit:10;stroke-dasharray:none;stroke-opacity:1" id="path382" d="m 920,7110 0,0 32.496,-1116.08 99.114,-1116.08 -47.12,-1240.08 -84.49,-620.04 0,0 84.49,620.04 67.43,1240.08 L 964.684,5993.92 920,7110 Z"/><path style="fill:#000;fill-opacity:1;fill-rule:nonzero;stroke:none" id="path384" d="m 920,7110 0,0 44.684,-1116.08 107.236,-1116.08 -67.43,-1240.08 -84.49,-620.04 0,0 96.68,620.04 67.43,1240.08 L 976.871,5993.92 920,7110"/><path style="fill:none;stroke:#000;stroke-width:5;stroke-linecap:butt;stroke-linejoin:miter;stroke-miterlimit:10;stroke-dasharray:none;stroke-opacity:1" id="path386" d="m 920,7110 0,0 44.684,-1116.08 107.236,-1116.08 -67.43,-1240.08 -84.49,-620.04 0,0 96.68,620.04 67.43,1240.08 L 976.871,5993.92 920,7110 Z"/><path style="fill:#333;fill-opacity:1;fill-rule:nonzero;stroke:none" id="path388" d="m 920,7110 0,0 56.871,-1116.08 107.239,-1116.08 -67.43,-1240.08 -96.68,-620.04 0,0 108.86,620.04 67.44,1240.08 L 989.055,5993.92 920,7110"/><path style="fill:none;stroke:#000;stroke-width:5;stroke-linecap:butt;stroke-linejoin:miter;stroke-miterlimit:10;stroke-dasharray:none;stroke-opacity:1" id="path390" d="m 920,7110 0,0 56.871,-1116.08 107.239,-1116.08 -67.43,-1240.08 -96.68,-620.04 0,0 108.86,620.04 67.44,1240.08 L 989.055,5993.92 920,7110 Z"/><path style="fill:#999;fill-opacity:1;fill-rule:nonzero;stroke:none" id="path392" d="m 920,7110 0,0 L 989.055,5993.92 1096.3,4877.84 1028.86,3637.76 920,3017.72 l 0,0 121.86,620.04 67.43,1240.08 L 1002.05,5993.92 920,7110"/><path style="fill:none;stroke:#000;stroke-width:5;stroke-linecap:butt;stroke-linejoin:miter;stroke-miterlimit:10;stroke-dasharray:none;stroke-opacity:1" id="path394" d="m 920,7110 0,0 L 989.055,5993.92 1096.3,4877.84 1028.86,3637.76 920,3017.72 l 0,0 121.86,620.04 67.43,1240.08 L 1002.05,5993.92 920,7110 Z"/><path style="fill:#4d4d4d;fill-opacity:1;fill-rule:nonzero;stroke:none" id="path396" d="m 920,7110 0,0 82.05,-1116.08 107.24,-1116.08 -67.43,-1240.08 -121.86,-620.04 0,0 162.48,620.04 30.06,1240.08 L 1002.05,5993.92 920,7110"/><path style="fill:none;stroke:#000;stroke-width:5;stroke-linecap:butt;stroke-linejoin:miter;stroke-miterlimit:10;stroke-dasharray:none;stroke-opacity:1" id="path398" d="m 920,7110 0,0 82.05,-1116.08 107.24,-1116.08 -67.43,-1240.08 -121.86,-620.04 0,0 162.48,620.04 30.06,1240.08 L 1002.05,5993.92 920,7110 Z"/><path style="fill:#e6e6e6;fill-opacity:1;fill-rule:nonzero;stroke:none" id="path400" d="m 920,7110 0,0 82.05,-1116.08 110.49,-1116.08 -30.06,-1240.08 -162.48,-620.04 0,0 191.73,620.04 28.43,1240.08 L 1029.68,5993.92 920,7110"/><path style="fill:none;stroke:#000;stroke-width:5;stroke-linecap:butt;stroke-linejoin:miter;stroke-miterlimit:10;stroke-dasharray:none;stroke-opacity:1" id="path402" d="m 920,7110 0,0 82.05,-1116.08 110.49,-1116.08 -30.06,-1240.08 -162.48,-620.04 0,0 191.73,620.04 28.43,1240.08 L 1029.68,5993.92 920,7110 Z"/><path style="fill:#666;fill-opacity:1;fill-rule:nonzero;stroke:none" id="path404" d="m 920,7110 0,0 109.68,-1116.08 110.48,-1116.08 -28.43,-1240.08 -191.73,-620.04 0,0 223.41,620.04 28.44,1240.08 L 1061.36,5993.92 920,7110"/><path style="fill:none;stroke:#000;stroke-width:5;stroke-linecap:butt;stroke-linejoin:miter;stroke-miterlimit:10;stroke-dasharray:none;stroke-opacity:1" id="path406" d="m 920,7110 0,0 109.68,-1116.08 110.48,-1116.08 -28.43,-1240.08 -191.73,-620.04 0,0 223.41,620.04 28.44,1240.08 L 1061.36,5993.92 920,7110 Z"/><path style="fill:#fff;fill-opacity:1;fill-rule:nonzero;stroke:none" id="path408" d="m 920,7110 0,0 141.36,-1116.08 110.49,-1116.08 -28.44,-1240.08 -223.41,-620.04 0,0 288.41,620.04 28.43,1240.08 L 1126.36,5993.92 920,7110"/><path style="fill:none;stroke:#000;stroke-width:5;stroke-linecap:butt;stroke-linejoin:miter;stroke-miterlimit:10;stroke-dasharray:none;stroke-opacity:1" id="path410" d="m 920,7110 0,0 141.36,-1116.08 110.49,-1116.08 -28.44,-1240.08 -223.41,-620.04 0,0 288.41,620.04 28.43,1240.08 L 1126.36,5993.92 920,7110 Z"/><path style="fill:#b2b2b2;fill-opacity:1;fill-rule:nonzero;stroke:none" id="path412" d="m 920,7110 0,0 206.36,-1116.08 110.48,-1116.08 -28.43,-1240.08 -288.41,-620.04 0,0 357.46,620.04 28.44,1240.08 L 1195.41,5993.92 920,7110"/><path style="fill:none;stroke:#000;stroke-width:5;stroke-linecap:butt;stroke-linejoin:miter;stroke-miterlimit:10;stroke-dasharray:none;stroke-opacity:1" id="path414" d="m 920,7110 0,0 206.36,-1116.08 110.48,-1116.08 -28.43,-1240.08 -288.41,-620.04 0,0 357.46,620.04 28.44,1240.08 L 1195.41,5993.92 920,7110 Z"/><path style="fill:gray;fill-opacity:1;fill-rule:nonzero;stroke:none" id="path416" d="m 920,7110 0,0 L 1195.41,5993.92 1305.9,4877.84 1277.46,3637.76 920,3017.72 l 0,0 468.77,620.04 28.43,1240.08 L 1306.71,5993.92 920,7110"/><path style="fill:none;stroke:#000;stroke-width:5;stroke-linecap:butt;stroke-linejoin:miter;stroke-miterlimit:10;stroke-dasharray:none;stroke-opacity:1" id="path418" d="m 920,7110 0,0 L 1195.41,5993.92 1305.9,4877.84 1277.46,3637.76 920,3017.72 l 0,0 468.77,620.04 28.43,1240.08 L 1306.71,5993.92 920,7110 Z"/><path style="fill:#ccc;fill-opacity:1;fill-rule:nonzero;stroke:none" id="path420" d="m 920,7110 0,0 L 1306.71,5993.92 1417.2,4877.84 1388.77,3637.76 920,3017.72 l 0,0 3791.57,620.04 L 4740,4877.84 4629.51,5993.92 920,7110"/><path style="fill:none;stroke:#000;stroke-width:5;stroke-linecap:butt;stroke-linejoin:miter;stroke-miterlimit:10;stroke-dasharray:none;stroke-opacity:1" id="path422" d="m 920,7110 0,0 L 1306.71,5993.92 1417.2,4877.84 1388.77,3637.76 920,3017.72 l 0,0 3791.57,620.04 L 4740,4877.84 4629.51,5993.92 920,7110 Z"/></g></g></svg>